<svg width="1024" height="1024" viewBox="0 0 1024 1024" fill="none" xmlns="http://www.w3.org/2000/svg">
  <defs>
    <linearGradient id="iconBg" x1="181.02" y1="109.701" x2="889.16" y2="978.423" gradientUnits="userSpaceOnUse">
      <stop offset="0" stop-color="#1A2A4A"/>
      <stop offset="1" stop-color="#0D1525"/>
    </linearGradient>
  </defs>

  <rect width="1024" height="1024" rx="220" fill="url(#iconBg)"/>

  <svg x="112" y="112" width="800" height="800" viewBox="0 0 96 96" fill="none" xmlns="http://www.w3.org/2000/svg">
    <path d="M48 20 L50.4 33.6 L64 36 L50.4 38.4 L48 52 L45.6 38.4 L32 36 L45.6 33.6 Z"
          fill="url(#starFill)"/>
    <line x1="48" y1="16" x2="48" y2="22" stroke="rgba(180,210,255,0.56)" stroke-width="1.2" stroke-linecap="round"/>
    <line x1="48" y1="50" x2="48" y2="56" stroke="rgba(180,210,255,0.56)" stroke-width="1.2" stroke-linecap="round"/>
    <line x1="28" y1="36" x2="34" y2="36" stroke="rgba(180,210,255,0.56)" stroke-width="1.2" stroke-linecap="round"/>
    <line x1="62" y1="36" x2="68" y2="36" stroke="rgba(180,210,255,0.56)" stroke-width="1.2" stroke-linecap="round"/>

    <path d="M18 62 C28 62 32 52 42 52 C52 52 56 60 66 58 C72 57 76 53 80 50"
          stroke="url(#grad1)" stroke-width="2" stroke-linecap="round" fill="none"/>
    <path d="M18 68 C30 68 34 56 46 56 C56 56 60 64 72 61 C76 60 79 57 82 54"
          stroke="url(#grad1)" stroke-width="1.4" stroke-linecap="round" fill="none" opacity="0.6"/>
    <path d="M18 74 C32 74 36 62 50 62 C60 62 64 68 76 65"
          stroke="url(#grad1)" stroke-width="0.9" stroke-linecap="round" fill="none" opacity="0.35"/>

    <defs>
      <linearGradient id="starFill" x1="32" y1="20" x2="64" y2="52" gradientUnits="userSpaceOnUse">
        <stop offset="0%" stop-color="#E8F4FF"/>
        <stop offset="100%" stop-color="#7AB8FF"/>
      </linearGradient>
      <linearGradient id="grad1" x1="18" y1="62" x2="82" y2="62" gradientUnits="userSpaceOnUse">
        <stop offset="0%" stop-color="#3D7FFF" stop-opacity="0"/>
        <stop offset="45%" stop-color="#6EB3FF"/>
        <stop offset="100%" stop-color="#A5D0FF" stop-opacity="0.15"/>
      </linearGradient>
    </defs>
  </svg>
</svg>
